<svg width="512" height="512" viewBox="0 0 512 512" fill="none" xmlns="http://www.w3.org/2000/svg">
<circle cx="256" cy="256" r="256" fill="#00AB94"/>
<rect x="66" y="129" width="380" height="253" rx="2" stroke="white" stroke-width="10"/>
<rect x="86" y="149" width="340" height="213" rx="2" stroke="white" stroke-width="10"/>
<path d="M146.789 292.546H201.354C204.187 292.546 206.579 291.569 208.532 289.616C210.534 287.614 211.535 285.246 211.535 282.512V272.697C211.535 269.523 210.192 266.813 207.507 264.567C204.821 262.321 201.599 261.198 197.839 261.198H174.108V245.817H197.839C201.062 245.817 203.796 244.694 206.042 242.448C208.337 240.202 209.484 237.517 209.484 234.392V229.484C209.484 226.652 208.483 224.235 206.481 222.233C204.528 220.231 202.136 219.23 199.304 219.23H146.789V203.85H199.304C204.04 203.85 208.337 204.997 212.194 207.292C216.101 209.587 219.201 212.688 221.496 216.594C223.791 220.451 224.938 224.748 224.938 229.484V234.685C224.938 242.399 222.009 248.405 216.149 252.702C219.909 254.948 222.644 257.683 224.353 260.905C226.062 264.079 226.916 268.059 226.916 272.844V282.658C226.916 287.346 225.769 291.618 223.474 295.476C221.179 299.284 218.078 302.336 214.172 304.631C210.314 306.877 206.042 308 201.354 308H146.789V292.546Z" fill="white"/>
<path d="M283.789 272.844C283.789 267.18 285.107 263.005 287.744 260.319C290.381 257.634 295.093 255.656 301.88 254.387L340.698 246.916C343.091 246.477 345.068 245.256 346.631 243.254C348.193 241.203 348.975 238.859 348.975 236.223V229.484C348.975 226.652 347.974 224.235 345.972 222.233C344.019 220.231 341.626 219.23 338.794 219.23H288.989V203.85H338.794C343.53 203.85 347.827 204.997 351.685 207.292C355.542 209.538 358.618 212.565 360.913 216.374C363.257 220.183 364.429 224.406 364.429 229.045V236.516C364.429 240.617 363.647 244.426 362.085 247.941C360.522 251.457 358.374 254.411 355.64 256.804C352.954 259.147 349.878 260.661 346.411 261.345L302.832 269.621C301.416 269.914 300.439 270.28 299.902 270.72C299.414 271.11 299.17 271.794 299.17 272.771V292.619H364.355V308H283.789V272.844Z" fill="white"/>
<path d="M258.19 283.905H264.286V290H258.19V283.905ZM258.19 277.81H264.286V283.905H258.19V277.81ZM252.095 277.81H258.19V283.905H252.095V277.81ZM258.19 241.238H264.286V247.333H258.19V241.238ZM252.095 241.238H258.19V247.333H252.095V241.238ZM252.095 283.905H258.19V290H252.095V283.905ZM258.19 235.143H264.286V241.238H258.19V235.143ZM252.095 235.143H258.19V241.238H252.095V235.143Z" fill="white"/>
</svg>
