<svg width="512" height="512" viewBox="0 0 512 512" fill="none" xmlns="http://www.w3.org/2000/svg">
<circle cx="256" cy="256" r="256" fill="#00AB94"/>
<rect x="106" y="106" width="300" height="300" rx="2" stroke="white" stroke-width="10"/>
<rect x="126" y="126" width="260" height="260" rx="2" stroke="white" stroke-width="10"/>
<path d="M193.127 203.85H226.599V308H211.218V219.23H193.127V203.85Z" fill="white"/>
<path d="M281.127 203.85H314.599V308H299.218V219.23H281.127V203.85Z" fill="white"/>
<path d="M259.19 283.905H265.286V290H259.19V283.905ZM259.19 277.81H265.286V283.905H259.19V277.81ZM253.095 277.81H259.19V283.905H253.095V277.81ZM259.19 241.238H265.286V247.333H259.19V241.238ZM253.095 241.238H259.19V247.333H253.095V241.238ZM253.095 283.905H259.19V290H253.095V283.905ZM259.19 235.143H265.286V241.238H259.19V235.143ZM253.095 235.143H259.19V241.238H253.095V235.143Z" fill="white"/>
</svg>
