<svg width="512" height="512" viewBox="0 0 512 512" fill="none" xmlns="http://www.w3.org/2000/svg">
<circle cx="256" cy="256" r="256" fill="#00AB94"/>
<rect x="96" y="135" width="320" height="242" rx="2" stroke="white" stroke-width="10"/>
<rect x="116" y="155" width="280" height="202" rx="2" stroke="white" stroke-width="10"/>
<path d="M147.789 203.85H163.243V239.592C163.243 242.424 164.22 244.841 166.173 246.843C168.175 248.796 170.592 249.772 173.424 249.772H209.312V203.85H224.693V308H209.312V265.153H173.424C168.736 265.153 164.439 264.006 160.533 261.711C156.676 259.416 153.575 256.364 151.231 252.556C148.937 248.698 147.789 244.426 147.789 239.738V203.85Z" fill="white"/>
<path d="M282.789 292.546H337.354C340.187 292.546 342.579 291.569 344.532 289.616C346.534 287.614 347.535 285.246 347.535 282.512V272.697C347.535 269.523 346.192 266.813 343.507 264.567C340.821 262.321 337.599 261.198 333.839 261.198H310.108V245.817H333.839C337.062 245.817 339.796 244.694 342.042 242.448C344.337 240.202 345.484 237.517 345.484 234.392V229.484C345.484 226.652 344.483 224.235 342.481 222.233C340.528 220.231 338.136 219.23 335.304 219.23H282.789V203.85H335.304C340.04 203.85 344.337 204.997 348.194 207.292C352.101 209.587 355.201 212.688 357.496 216.594C359.791 220.451 360.938 224.748 360.938 229.484V234.685C360.938 242.399 358.009 248.405 352.149 252.702C355.909 254.948 358.644 257.683 360.353 260.905C362.062 264.079 362.916 268.059 362.916 272.844V282.658C362.916 287.346 361.769 291.618 359.474 295.476C357.179 299.284 354.078 302.336 350.172 304.631C346.314 306.877 342.042 308 337.354 308H282.789V292.546Z" fill="white"/>
<path d="M257.19 283.905H263.286V290H257.19V283.905ZM257.19 277.81H263.286V283.905H257.19V277.81ZM251.095 277.81H257.19V283.905H251.095V277.81ZM257.19 241.238H263.286V247.333H257.19V241.238ZM251.095 241.238H257.19V247.333H251.095V241.238ZM251.095 283.905H257.19V290H251.095V283.905ZM257.19 235.143H263.286V241.238H257.19V235.143ZM251.095 235.143H257.19V241.238H251.095V235.143Z" fill="white"/>
</svg>
