<svg width="512" height="512" viewBox="0 0 512 512" fill="none" xmlns="http://www.w3.org/2000/svg">
<circle cx="256" cy="256" r="256" fill="#00AB94"/>
<rect x="56" y="143" width="400" height="225" rx="2" stroke="white" stroke-width="10"/>
<rect x="76" y="163" width="360" height="185" rx="2" stroke="white" stroke-width="10"/>
<path d="M120.127 203.85H153.599V308H138.218V219.23H120.127V203.85ZM172.715 229.484C172.715 224.748 173.862 220.451 176.157 216.594C178.452 212.688 181.528 209.587 185.386 207.292C189.292 204.997 193.613 203.85 198.35 203.85H246.909V219.23H198.35C195.518 219.23 193.101 220.231 191.099 222.233C189.146 224.235 188.169 226.652 188.169 229.484V242.229H226.401C231.089 242.229 235.361 243.278 239.219 245.378C243.076 247.478 246.128 250.31 248.374 253.874C250.669 257.39 251.816 261.296 251.816 265.593V282.585C251.816 287.272 250.669 291.545 248.374 295.402C246.128 299.211 243.076 302.263 239.219 304.558C235.361 306.853 231.089 308 226.401 308H198.35C193.662 308 189.365 306.853 185.459 304.558C181.602 302.263 178.501 299.211 176.157 295.402C173.862 291.545 172.715 287.272 172.715 282.585V229.484ZM188.169 282.585C188.169 285.319 189.146 287.663 191.099 289.616C193.101 291.569 195.518 292.546 198.35 292.546H226.401C229.185 292.546 231.553 291.569 233.506 289.616C235.459 287.663 236.436 285.319 236.436 282.585V265.593C236.436 263.005 235.459 260.832 233.506 259.074C231.553 257.268 229.185 256.364 226.401 256.364H188.169V282.585Z" fill="white"/>
<path d="M308.789 229.265C308.789 224.577 309.937 220.305 312.231 216.447C314.526 212.59 317.603 209.538 321.46 207.292C325.317 204.997 329.59 203.85 334.277 203.85H362.329C367.065 203.85 371.362 204.997 375.22 207.292C379.077 209.538 382.153 212.59 384.448 216.447C386.743 220.305 387.891 224.577 387.891 229.265V282.365C387.891 287.053 386.743 291.35 384.448 295.256C382.153 299.113 379.077 302.214 375.22 304.558C371.362 306.853 367.065 308 362.329 308H313.77V292.546H362.329C365.161 292.546 367.554 291.569 369.507 289.616C371.509 287.614 372.51 285.197 372.51 282.365V269.548H334.277C329.59 269.548 325.317 268.498 321.46 266.398C317.603 264.299 314.526 261.491 312.231 257.976C309.937 254.411 308.789 250.48 308.789 246.184V229.265ZM324.243 246.037C324.243 248.625 325.22 250.847 327.173 252.702C329.126 254.509 331.494 255.412 334.277 255.412H372.51V229.265C372.51 226.53 371.509 224.187 369.507 222.233C367.505 220.231 365.112 219.23 362.329 219.23H334.277C331.494 219.23 329.126 220.207 327.173 222.16C325.22 224.113 324.243 226.481 324.243 229.265V246.037Z" fill="white"/>
<path d="M283.19 283.905H289.286V290H283.19V283.905ZM283.19 277.81H289.286V283.905H283.19V277.81ZM277.095 277.81H283.19V283.905H277.095V277.81ZM283.19 241.238H289.286V247.333H283.19V241.238ZM277.095 241.238H283.19V247.333H277.095V241.238ZM277.095 283.905H283.19V290H277.095V283.905ZM283.19 235.143H289.286V241.238H283.19V235.143ZM277.095 235.143H283.19V241.238H277.095V235.143Z" fill="white"/>
</svg>
