<svg width="393" height="512" viewBox="0 0 393 512" fill="none" xmlns="http://www.w3.org/2000/svg">
<path d="M365.357 182.885L357.111 432.483C356.409 453.86 347.404 474.122 332.007 488.968C316.611 503.814 296.035 512.075 274.647 512H117.965C96.5907 512.076 76.0269 503.826 60.6327 488.997C45.2385 474.169 36.2242 453.928 35.5008 432.566L27.2544 182.885C27.074 177.417 29.073 172.102 32.8116 168.108C36.5503 164.114 41.7224 161.769 47.1901 161.589C52.6578 161.408 57.9733 163.407 61.9671 167.146C65.961 170.885 68.306 176.057 68.4865 181.524L76.7329 431.185C77.1435 441.843 81.6682 451.927 89.3567 459.319C97.0451 466.712 107.299 470.837 117.965 470.829H274.647C285.326 470.836 295.592 466.7 303.283 459.29C310.974 451.88 315.489 441.775 315.879 431.102L324.125 181.524C324.306 176.057 326.651 170.885 330.645 167.146C334.639 163.407 339.954 161.408 345.422 161.589C350.889 161.769 356.061 164.114 359.8 168.108C363.539 172.102 365.538 177.417 365.357 182.885ZM392.632 99.823C392.632 105.291 390.46 110.535 386.594 114.401C382.728 118.267 377.484 120.439 372.016 120.439H20.616C15.1483 120.439 9.90455 118.267 6.03829 114.401C2.17203 110.535 0 105.291 0 99.823C0 94.3553 2.17203 89.1116 6.03829 85.2453C9.90455 81.3791 15.1483 79.207 20.616 79.207H84.5258C91.0579 79.2246 97.3629 76.8113 102.214 72.4366C107.065 68.062 110.115 62.039 110.77 55.5398C112.291 40.294 119.434 26.1605 130.807 15.8933C142.179 5.626 156.967 -0.039651 172.288 0.0002089H220.324C235.645 -0.039651 250.433 5.626 261.805 15.8933C273.178 26.1605 280.32 40.294 281.842 55.5398C282.497 62.039 285.547 68.062 290.398 72.4366C295.249 76.8113 301.554 79.2246 308.086 79.207H371.996C377.463 79.207 382.707 81.3791 386.574 85.2453C390.44 89.1116 392.612 94.3553 392.612 99.823H392.632ZM146.559 79.207H246.094C243.385 73.0169 241.613 66.4577 240.837 59.7455C240.326 54.6638 237.947 49.9526 234.161 46.5246C230.375 43.0967 225.451 41.1961 220.344 41.1911H172.309C167.202 41.1961 162.278 43.0967 158.492 46.5246C154.706 49.9526 152.327 54.6638 151.816 59.7455C151.034 66.4588 149.276 73.018 146.559 79.207ZM167.32 391.561V216.015C167.32 210.547 165.148 205.304 161.281 201.437C157.415 197.571 152.171 195.399 146.704 195.399C141.236 195.399 135.992 197.571 132.126 201.437C128.26 205.304 126.088 210.547 126.088 216.015V391.643C126.088 397.111 128.26 402.355 132.126 406.221C135.992 410.087 141.236 412.259 146.704 412.259C152.171 412.259 157.415 410.087 161.281 406.221C165.148 402.355 167.32 397.111 167.32 391.643V391.561ZM266.565 391.561V216.015C266.565 210.547 264.393 205.304 260.527 201.437C256.661 197.571 251.417 195.399 245.949 195.399C240.482 195.399 235.238 197.571 231.372 201.437C227.505 205.304 225.333 210.547 225.333 216.015V391.643C225.333 397.111 227.505 402.355 231.372 406.221C235.238 410.087 240.482 412.259 245.949 412.259C251.417 412.259 256.661 410.087 260.527 406.221C264.393 402.355 266.565 397.111 266.565 391.643V391.561Z" fill="#A20707"/>
</svg>
