<svg width="512" height="512" viewBox="0 0 512 512" fill="none" xmlns="http://www.w3.org/2000/svg">
<path d="M203.54 205.774L172.773 308.371C170.161 317.097 172.548 326.564 178.991 333C183.701 337.71 190.031 340.258 196.507 340.258C198.886 340.258 201.281 339.919 203.62 339.21L306.225 308.452C310.152 307.274 313.733 305.145 316.628 302.242L504.741 114.129C509.386 109.484 511.999 103.177 511.999 96.613C511.999 90.0485 509.386 83.742 504.741 79.0968L432.894 7.2581C423.217 -2.41937 407.539 -2.41937 397.862 7.2581L209.757 195.371C206.854 198.274 204.725 201.839 203.54 205.774ZM249.209 225.984L415.378 59.8065L452.185 96.613L286.015 262.79L233.451 278.548L249.209 225.984Z" fill="#08244E"/>
<path d="M487.226 231.226C473.54 231.226 462.452 242.323 462.452 256V421.161C462.452 443.936 443.927 462.452 421.161 462.452H90.8387C68.0725 462.452 49.5484 443.936 49.5484 421.161V90.8387C49.5484 68.0645 68.0725 49.5484 90.8387 49.5484H256C269.685 49.5484 280.774 38.4515 280.774 24.7742C280.774 11.0969 269.685 0 256 0H90.8387C40.7501 0 0 40.758 0 90.8387V421.161C0 471.242 40.7501 512 90.8387 512H421.161C471.25 512 512 471.242 512 421.161V256C512 242.323 500.911 231.226 487.226 231.226Z" fill="#08244E"/>
</svg>
