<svg width="539" height="512" viewBox="0 0 539 512" fill="none" xmlns="http://www.w3.org/2000/svg">
<path d="M269.486 242.53C284.369 242.53 296.433 230.465 296.433 215.582C296.433 200.7 284.369 188.635 269.486 188.635C254.603 188.635 242.539 200.7 242.539 215.582C242.539 230.465 254.603 242.53 269.486 242.53Z" fill="black" fill-opacity="0.65"/>
<path d="M377.255 242.53C392.138 242.53 404.202 230.465 404.202 215.582C404.202 200.7 392.138 188.635 377.255 188.635C362.372 188.635 350.308 200.7 350.308 215.582C350.308 230.465 362.372 242.53 377.255 242.53Z" fill="black" fill-opacity="0.65"/>
<path d="M161.678 242.53C176.561 242.53 188.626 230.465 188.626 215.582C188.626 200.7 176.561 188.635 161.678 188.635C146.796 188.635 134.731 200.7 134.731 215.582C134.731 230.465 146.796 242.53 161.678 242.53Z" fill="black" fill-opacity="0.65"/>
<path d="M458.105 0H80.8421C59.4014 0 38.8389 8.51727 23.6781 23.6781C8.51727 38.8389 0 59.4014 0 80.8421V485.053C0.00822856 489.828 1.28509 494.515 3.69989 498.634C6.11469 502.753 9.5807 506.157 13.7432 508.497C17.7706 510.779 22.3181 511.986 26.9474 512C31.784 511.999 36.531 510.695 40.6905 508.227L161.684 434.931C166.157 432.268 171.304 430.958 176.505 431.158H458.105C479.546 431.158 500.108 422.641 515.269 407.48C530.43 392.319 538.947 371.756 538.947 350.316V80.8421C538.947 59.4014 530.43 38.8389 515.269 23.6781C500.108 8.51727 479.546 0 458.105 0ZM485.053 350.316C485.053 357.463 482.214 364.317 477.16 369.37C472.106 374.424 465.252 377.263 458.105 377.263H176.505C161.787 377.251 147.345 381.258 134.737 388.851L53.8947 437.356V80.8421C53.8947 73.6952 56.7338 66.8411 61.7874 61.7874C66.8411 56.7338 73.6952 53.8947 80.8421 53.8947H458.105C465.252 53.8947 472.106 56.7338 477.16 61.7874C482.214 66.8411 485.053 73.6952 485.053 80.8421V350.316Z" fill="black" fill-opacity="0.65"/>
</svg>
