<svg width="540" height="536" viewBox="0 0 540 536" fill="none" xmlns="http://www.w3.org/2000/svg">
<path fill-rule="evenodd" clip-rule="evenodd" d="M111.824 12H148.676C161.601 11.9999 172.027 11.9998 180.513 12.5743C189.237 13.165 196.954 14.4104 204.259 17.413C221.82 24.6304 235.771 38.4736 243.044 55.8976C246.071 63.1467 247.326 70.8032 247.922 79.4603C248.5 87.8805 248.5 98.2251 248.5 111.051V147.616C248.5 160.442 248.5 170.787 247.922 179.206C247.326 187.863 246.071 195.52 243.044 202.769C235.771 220.193 221.82 234.036 204.259 241.253C196.954 244.256 189.237 245.502 180.513 246.093C172.027 246.667 161.601 246.667 148.676 246.667H111.824C98.8987 246.667 88.4734 246.667 79.9873 246.093C71.2626 245.502 63.5463 244.256 56.2406 241.253C38.6804 234.036 24.7291 220.193 17.4553 202.769C14.4292 195.52 13.1741 187.863 12.5788 179.206C11.9998 170.786 11.9999 160.442 12 147.616V111.051C11.9999 98.2251 11.9998 87.8805 12.5788 79.4603C13.1741 70.8032 14.4292 63.1467 17.4553 55.8976C24.7291 38.4736 38.6804 24.6304 56.2406 17.413C63.5463 14.4104 71.2626 13.165 79.9873 12.5743C88.4734 11.9998 98.8987 11.9999 111.824 12ZM81.9384 40.9525C74.6725 41.4443 70.4413 42.3648 67.2109 43.6917C56.6749 48.0224 48.3038 56.3285 43.9393 66.7829C42.602 69.9883 41.6743 74.1867 41.1787 81.3963C40.6746 88.7339 40.667 98.1077 40.667 111.555V147.111C40.667 160.559 40.6746 169.933 41.1787 177.27C41.6743 184.48 42.602 188.678 43.9393 191.884C48.3038 202.338 56.6749 210.644 67.2109 214.975C70.4413 216.302 74.6725 217.222 81.9384 217.714C89.3334 218.214 98.7804 218.222 112.333 218.222H148.167C161.72 218.222 171.167 218.214 178.562 217.714C185.828 217.222 190.059 216.302 193.289 214.975C203.825 210.644 212.196 202.338 216.561 191.884C217.898 188.678 218.826 184.48 219.321 177.27C219.825 169.933 219.833 160.559 219.833 147.111V111.555C219.833 98.1077 219.825 88.7339 219.321 81.3963C218.826 74.1867 217.898 69.9883 216.561 66.7829C212.196 56.3285 203.825 48.0224 193.289 43.6917C190.059 42.3648 185.828 41.4443 178.562 40.9525C171.167 40.4523 161.72 40.4448 148.167 40.4448H112.333C98.7804 40.4448 89.3334 40.4523 81.9384 40.9525ZM111.824 289.333H148.676C161.601 289.333 172.027 289.333 180.513 289.907C189.237 290.498 196.954 291.744 204.259 294.747C221.82 301.964 235.771 315.807 243.044 333.231C246.071 340.48 247.326 348.137 247.922 356.794C248.5 365.214 248.5 375.558 248.5 388.384V424.949C248.5 437.775 248.5 448.121 247.922 456.54C247.326 465.197 246.071 472.853 243.044 480.102C235.771 497.526 221.82 511.37 204.259 518.587C196.954 521.589 189.237 522.835 180.513 523.426C172.027 524 161.601 524 148.676 524H111.824C98.8987 524 88.4734 524 79.9873 523.426C71.2626 522.835 63.5463 521.589 56.2406 518.587C38.6804 511.37 24.7291 497.526 17.4553 480.102C14.4292 472.853 13.1741 465.197 12.5788 456.54C11.9998 448.119 11.9999 437.775 12 424.949V388.384C11.9999 375.558 11.9998 365.214 12.5788 356.794C13.1741 348.137 14.4292 340.48 17.4553 333.231C24.7291 315.807 38.6804 301.964 56.2406 294.747C63.5463 291.744 71.2626 290.498 79.9873 289.907C88.4734 289.333 98.8987 289.333 111.824 289.333ZM81.9384 318.286C74.6725 318.778 70.4413 319.698 67.2109 321.025C56.6749 325.356 48.3038 333.662 43.9393 344.116C42.602 347.322 41.6743 351.52 41.1787 358.73C40.6746 366.067 40.667 375.441 40.667 388.889V424.445C40.667 437.892 40.6746 447.266 41.1787 454.604C41.6743 461.813 42.602 466.012 43.9393 469.217C48.3038 479.671 56.6749 487.978 67.2109 492.308C70.4413 493.635 74.6725 494.556 81.9384 495.047C89.3334 495.548 98.7804 495.555 112.333 495.555H148.167C161.72 495.555 171.167 495.548 178.562 495.047C185.828 494.556 190.059 493.635 193.289 492.308C203.825 487.978 212.196 479.671 216.561 469.217C217.898 466.012 218.826 461.813 219.321 454.604C219.825 447.266 219.833 437.892 219.833 424.445V388.889C219.833 375.441 219.825 366.067 219.321 358.73C218.826 351.52 217.898 347.322 216.561 344.116C212.196 333.662 203.825 325.356 193.289 321.025C190.059 319.698 185.828 318.778 178.562 318.286C171.167 317.786 161.72 317.778 148.167 317.778H112.333C98.7804 317.778 89.3334 317.786 81.9384 318.286ZM391.324 12H428.176C441.101 11.9999 451.527 11.9998 460.013 12.5743C468.737 13.165 476.454 14.4104 483.759 17.413C501.32 24.6304 515.271 38.4736 522.544 55.8976C525.571 63.1467 526.826 70.8032 527.422 79.4603C528 87.8805 528 98.2251 528 111.051V147.616C528 160.442 528 170.787 527.422 179.206C526.826 187.863 525.571 195.52 522.544 202.769C515.271 220.193 501.32 234.036 483.759 241.253C476.454 244.256 468.737 245.502 460.013 246.093C451.527 246.667 441.101 246.667 428.176 246.667H391.324C378.399 246.667 367.973 246.667 359.487 246.093C350.763 245.502 343.046 244.256 335.741 241.253C318.18 234.036 304.229 220.193 296.956 202.769C293.929 195.52 292.674 187.863 292.078 179.206C291.5 170.786 291.5 160.442 291.5 147.616V111.051C291.5 98.2251 291.5 87.8805 292.078 79.4603C292.674 70.8032 293.929 63.1467 296.956 55.8976C304.229 38.4736 318.18 24.6304 335.741 17.413C343.046 14.4104 350.763 13.165 359.487 12.5743C367.973 11.9998 378.399 11.9999 391.324 12ZM361.438 40.9525C354.173 41.4443 349.941 42.3648 346.711 43.6917C336.175 48.0224 327.804 56.3285 323.439 66.7829C322.102 69.9883 321.174 74.1867 320.679 81.3963C320.175 88.7339 320.167 98.1077 320.167 111.555V147.111C320.167 160.559 320.175 169.933 320.679 177.27C321.174 184.48 322.102 188.678 323.439 191.884C327.804 202.338 336.175 210.644 346.711 214.975C349.941 216.302 354.173 217.222 361.438 217.714C368.833 218.214 378.28 218.222 391.833 218.222H427.667C441.22 218.222 450.667 218.214 458.062 217.714C465.327 217.222 469.559 216.302 472.789 214.975C483.325 210.644 491.696 202.338 496.061 191.884C497.398 188.678 498.326 184.48 498.821 177.27C499.325 169.933 499.333 160.559 499.333 147.111V111.555C499.333 98.1077 499.325 88.7339 498.821 81.3963C498.326 74.1867 497.398 69.9883 496.061 66.7829C491.696 56.3285 483.325 48.0224 472.789 43.6917C469.559 42.3648 465.327 41.4443 458.062 40.9525C450.667 40.4523 441.22 40.4448 427.667 40.4448H391.833C378.28 40.4448 368.833 40.4523 361.438 40.9525ZM391.324 289.333H428.176C441.101 289.333 451.527 289.333 460.013 289.907C468.737 290.498 476.454 291.744 483.759 294.747C501.32 301.964 515.271 315.807 522.544 333.231C525.571 340.48 526.826 348.137 527.422 356.794C528 365.214 528 375.558 528 388.384V424.949C528 437.775 528 448.121 527.422 456.54C526.826 465.197 525.571 472.853 522.544 480.102C515.271 497.526 501.32 511.37 483.759 518.587C476.454 521.589 468.737 522.835 460.013 523.426C451.527 524 441.101 524 428.176 524H391.324C378.399 524 367.973 524 359.487 523.426C350.763 522.835 343.046 521.589 335.741 518.587C318.18 511.37 304.229 497.526 296.956 480.102C293.929 472.853 292.674 465.197 292.078 456.54C291.5 448.119 291.5 437.775 291.5 424.949V388.384C291.5 375.558 291.5 365.214 292.078 356.794C292.674 348.137 293.929 340.48 296.956 333.231C304.229 315.807 318.18 301.964 335.741 294.747C343.046 291.744 350.763 290.498 359.487 289.907C367.973 289.333 378.399 289.333 391.324 289.333ZM361.438 318.286C354.173 318.778 349.941 319.698 346.711 321.025C336.175 325.356 327.804 333.662 323.439 344.116C322.102 347.322 321.174 351.52 320.679 358.73C320.175 366.067 320.167 375.441 320.167 388.889V424.445C320.167 437.892 320.175 447.266 320.679 454.604C321.174 461.813 322.102 466.012 323.439 469.217C327.804 479.671 336.175 487.978 346.711 492.308C349.941 493.635 354.173 494.556 361.438 495.047C368.833 495.548 378.28 495.555 391.833 495.555H427.667C441.22 495.555 450.667 495.548 458.062 495.047C465.327 494.556 469.559 493.635 472.789 492.308C483.325 487.978 491.696 479.671 496.061 469.217C497.398 466.012 498.326 461.813 498.821 454.604C499.325 447.266 499.333 437.892 499.333 424.445V388.889C499.333 375.441 499.325 366.067 498.821 358.73C498.326 351.52 497.398 347.322 496.061 344.116C491.696 333.662 483.325 325.356 472.789 321.025C469.559 319.698 465.327 318.778 458.062 318.286C450.667 317.786 441.22 317.778 427.667 317.778H391.833C378.28 317.778 368.833 317.786 361.438 318.286Z" fill="white" stroke="white" stroke-width="24"/>
</svg>
