<svg width="410" height="512" viewBox="0 0 410 512" fill="none" xmlns="http://www.w3.org/2000/svg">
<path d="M409.6 256C409.6 262.79 406.903 269.301 402.102 274.102C397.301 278.903 390.79 281.6 384 281.6H189.696L248.576 340.224C250.975 342.604 252.88 345.435 254.18 348.555C255.479 351.674 256.148 355.021 256.148 358.4C256.148 361.78 255.479 365.126 254.18 368.245C252.88 371.365 250.975 374.196 248.576 376.576C246.196 378.975 243.365 380.88 240.245 382.18C237.126 383.479 233.779 384.148 230.4 384.148C227.02 384.148 223.674 383.479 220.555 382.18C217.435 380.88 214.604 378.975 212.224 376.576L109.824 274.176C107.493 271.741 105.666 268.87 104.448 265.728C101.888 259.495 101.888 252.505 104.448 246.272C105.666 243.13 107.493 240.259 109.824 237.824L212.224 135.424C214.611 133.037 217.445 131.144 220.563 129.852C223.682 128.56 227.024 127.895 230.4 127.895C233.776 127.895 237.118 128.56 240.237 129.852C243.355 131.144 246.189 133.037 248.576 135.424C250.963 137.811 252.856 140.645 254.148 143.763C255.44 146.882 256.105 150.224 256.105 153.6C256.105 156.976 255.44 160.318 254.148 163.437C252.856 166.555 250.963 169.389 248.576 171.776L189.696 230.4H384C390.79 230.4 397.301 233.097 402.102 237.898C406.903 242.699 409.6 249.21 409.6 256ZM76.8 0H332.8C353.169 0 372.703 8.09141 387.106 22.4942C401.509 36.897 409.6 56.4314 409.6 76.8V153.6C409.6 160.39 406.903 166.901 402.102 171.702C397.301 176.503 390.79 179.2 384 179.2C377.21 179.2 370.699 176.503 365.898 171.702C361.097 166.901 358.4 160.39 358.4 153.6V76.8C358.4 70.0105 355.703 63.499 350.902 58.6981C346.101 53.8971 339.59 51.2 332.8 51.2H76.8C70.0105 51.2 63.499 53.8971 58.698 58.6981C53.8971 63.499 51.2 70.0105 51.2 76.8V435.2C51.2 441.99 53.8971 448.501 58.698 453.302C63.499 458.103 70.0105 460.8 76.8 460.8H332.8C339.59 460.8 346.101 458.103 350.902 453.302C355.703 448.501 358.4 441.99 358.4 435.2V358.4C358.4 351.61 361.097 345.099 365.898 340.298C370.699 335.497 377.21 332.8 384 332.8C390.79 332.8 397.301 335.497 402.102 340.298C406.903 345.099 409.6 351.61 409.6 358.4V435.2C409.6 455.569 401.509 475.103 387.106 489.506C372.703 503.909 353.169 512 332.8 512H76.8C56.4314 512 36.897 503.909 22.4942 489.506C8.0914 475.103 0 455.569 0 435.2V76.8C0 56.4314 8.0914 36.897 22.4942 22.4942C36.897 8.09141 56.4314 0 76.8 0Z" fill="white"/>
</svg>
