<svg width="770" height="660" viewBox="0 0 770 660" fill="none" xmlns="http://www.w3.org/2000/svg">
<path d="M670.892 329.992C708.547 329.992 739.072 299.467 739.072 261.812C739.072 224.158 708.547 193.632 670.892 193.632C633.238 193.632 602.712 224.158 602.712 261.812C602.712 299.467 633.238 329.992 670.892 329.992Z" stroke="white" stroke-width="60" stroke-linecap="round" stroke-linejoin="round"/>
<path d="M98.18 329.992C135.835 329.992 166.36 299.467 166.36 261.812C166.36 224.158 135.835 193.632 98.18 193.632C60.5252 193.632 30 224.158 30 261.812C30 299.467 60.5252 329.992 98.18 329.992Z" stroke="white" stroke-width="60" stroke-linecap="round" stroke-linejoin="round"/>
<path d="M261.812 166.36C299.467 166.36 329.992 135.835 329.992 98.18C329.992 60.5252 299.467 30 261.812 30C224.158 30 193.632 60.5252 193.632 98.18C193.632 135.835 224.158 166.36 261.812 166.36Z" stroke="white" stroke-width="60" stroke-linecap="round" stroke-linejoin="round"/>
<path d="M507.26 166.36C544.915 166.36 575.44 135.835 575.44 98.18C575.44 60.5252 544.915 30 507.26 30C469.606 30 439.08 60.5252 439.08 98.18C439.08 135.835 469.606 166.36 507.26 166.36Z" stroke="white" stroke-width="60" stroke-linecap="round" stroke-linejoin="round"/>
<path d="M572.836 424.945C538.63 405.946 513.309 374.21 502.382 336.639L502.379 336.642C494.962 311.126 479.464 288.707 458.213 272.754C436.963 256.801 411.109 248.176 384.537 248.176C357.965 248.176 332.111 256.801 310.86 272.754C289.61 288.707 274.112 311.126 266.695 336.642L266.692 336.639C255.765 374.21 230.444 405.946 196.238 424.945C171.598 438.301 153.043 460.627 144.418 487.294C135.793 513.961 137.761 542.924 149.912 568.18C162.064 593.436 183.468 613.047 209.688 622.948C235.908 632.85 264.932 632.283 290.745 621.364C350.845 596.72 418.229 596.72 478.329 621.364C504.144 632.295 533.175 632.87 559.403 622.971C585.63 613.072 607.042 593.458 619.196 568.197C631.351 542.935 633.316 513.964 624.684 487.293C616.052 460.621 597.486 438.295 572.836 424.945Z" stroke="white" stroke-width="60" stroke-linecap="round" stroke-linejoin="round"/>
</svg>
