<svg width="656" height="562" viewBox="0 0 656 562" fill="none" xmlns="http://www.w3.org/2000/svg">
<path d="M571.895 280.993C604.027 280.993 630.075 254.945 630.075 222.813C630.075 190.681 604.027 164.633 571.895 164.633C539.763 164.633 513.715 190.681 513.715 222.813C513.715 254.945 539.763 280.993 571.895 280.993Z" stroke="white" stroke-width="50" stroke-linecap="round" stroke-linejoin="round"/>
<path d="M83.1803 280.993C115.312 280.993 141.361 254.945 141.361 222.813C141.361 190.681 115.312 164.633 83.1803 164.633C51.0482 164.633 25 190.681 25 222.813C25 254.945 51.0482 280.993 83.1803 280.993Z" stroke="white" stroke-width="50" stroke-linecap="round" stroke-linejoin="round"/>
<path d="M222.813 141.361C254.945 141.361 280.993 115.312 280.993 83.1803C280.993 51.0482 254.945 25 222.813 25C190.681 25 164.633 51.0482 164.633 83.1803C164.633 115.312 190.681 141.361 222.813 141.361Z" stroke="white" stroke-width="50" stroke-linecap="round" stroke-linejoin="round"/>
<path d="M432.262 141.361C464.394 141.361 490.442 115.312 490.442 83.1803C490.442 51.0482 464.394 25 432.262 25C400.13 25 374.082 51.0482 374.082 83.1803C374.082 115.312 400.13 141.361 432.262 141.361Z" stroke="white" stroke-width="50" stroke-linecap="round" stroke-linejoin="round"/>
<path d="M488.22 362.02C459.031 345.807 437.424 318.726 428.099 286.665L428.097 286.668C421.768 264.894 408.542 245.763 390.409 232.15C372.275 218.537 350.213 211.177 327.538 211.177C304.864 211.177 282.801 218.537 264.668 232.15C246.534 245.763 233.309 264.894 226.98 286.668L226.977 286.665C217.653 318.726 196.046 345.807 166.857 362.02C145.831 373.417 129.997 392.468 122.637 415.224C115.277 437.98 116.956 462.695 127.325 484.247C137.695 505.798 155.96 522.533 178.334 530.983C200.708 539.432 225.476 538.948 247.502 529.63C298.788 508.601 356.289 508.601 407.574 529.63C429.603 538.958 454.376 539.449 476.757 531.002C499.138 522.555 517.409 505.817 527.781 484.261C538.153 462.704 539.83 437.983 532.464 415.223C525.098 392.463 509.255 373.412 488.22 362.02Z" stroke="white" stroke-width="50" stroke-linecap="round" stroke-linejoin="round"/>
</svg>
