<svg width="512" height="512" viewBox="0 0 512 512" fill="none" xmlns="http://www.w3.org/2000/svg">
<path d="M362.098 0H149.902L0 149.902V362.098L149.902 512H362.098L512 362.098V149.902L362.098 0ZM455.111 338.489L338.489 455.111H173.511L56.8889 338.489V173.511L173.511 56.8889H338.489L455.111 173.511V338.489Z" fill="white"/>
<path d="M256 398.222C271.71 398.222 284.445 385.487 284.445 369.778C284.445 354.068 271.71 341.333 256 341.333C240.291 341.333 227.556 354.068 227.556 369.778C227.556 385.487 240.291 398.222 256 398.222Z" fill="white"/>
<path d="M227.556 113.778H284.445V312.889H227.556V113.778Z" fill="white"/>
</svg>
