<svg width="378" height="526" viewBox="0 0 378 526" fill="none" xmlns="http://www.w3.org/2000/svg">
<path d="M189.182 123.364V193.182L282.273 100.091L189.182 7V76.8182C86.3164 76.8182 3 160.135 3 263C3 299.538 13.7055 333.4 31.8582 362.142L65.8364 328.164C55.48 308.731 49.5455 286.622 49.5455 263C49.5455 185.851 112.033 123.364 189.182 123.364ZM346.505 163.858L312.527 197.836C322.884 217.269 328.818 239.378 328.818 263C328.818 340.149 266.331 402.636 189.182 402.636V332.818L96.0909 425.909L189.182 519V449.182C292.047 449.182 375.364 365.865 375.364 263C375.364 226.462 364.658 192.6 346.505 163.858Z" fill="white" stroke="white" stroke-width="5"/>
</svg>
