<svg width="572" height="479" viewBox="0 0 572 479" fill="none" xmlns="http://www.w3.org/2000/svg">
<path d="M402.363 448.907V402.362C402.363 377.672 392.556 353.994 375.098 336.536C357.64 319.079 333.962 309.271 309.273 309.271H123.091C98.4016 309.271 74.7236 319.079 57.2657 336.536C39.8078 353.994 30 377.672 30 402.362L30 448.907" stroke="white" stroke-width="60" stroke-linecap="round" stroke-linejoin="round"/>
<path d="M216.188 216.182C267.601 216.182 309.279 174.504 309.279 123.091C309.279 71.6782 267.601 30 216.188 30C164.775 30 123.097 71.6782 123.097 123.091C123.097 174.504 164.775 216.182 216.188 216.182Z" stroke="white" stroke-width="60" stroke-linecap="round" stroke-linejoin="round"/>
<path d="M542.006 448.908V402.362C541.991 381.736 535.126 361.7 522.489 345.398C509.852 329.097 492.159 317.454 472.188 312.297M379.097 33.0244C399.121 38.1514 416.87 49.7971 429.544 66.1254C442.218 82.4538 449.098 102.536 449.098 123.206C449.098 143.876 442.218 163.959 429.544 180.287C416.87 196.615 399.121 208.261 379.097 213.388" stroke="white" stroke-width="60" stroke-linecap="round" stroke-linejoin="round"/>
</svg>
