<svg width="686" height="572" viewBox="0 0 686 572" fill="none" xmlns="http://www.w3.org/2000/svg">
<path d="M485.121 542.009V485.119C485.121 454.943 473.134 426.002 451.796 404.664C430.458 383.326 401.517 371.339 371.341 371.339H143.78C113.604 371.339 84.6634 383.326 63.3255 404.664C41.9875 426.002 30 454.943 30 485.119L30 542.009" stroke="white" stroke-width="60" stroke-linecap="round" stroke-linejoin="round"/>
<path d="M257.568 257.561C320.408 257.561 371.349 206.619 371.349 143.78C371.349 80.9412 320.408 30 257.568 30C194.729 30 143.788 80.9412 143.788 143.78C143.788 206.619 194.729 257.561 257.568 257.561Z" stroke="white" stroke-width="60" stroke-linecap="round" stroke-linejoin="round"/>
<path d="M655.8 542.01V485.12C655.781 459.91 647.39 435.42 631.945 415.495C616.499 395.571 594.874 381.34 570.464 375.037M456.684 33.6965C481.159 39.963 502.851 54.1969 518.343 74.1543C533.834 94.1116 542.242 118.657 542.242 143.921C542.242 169.185 533.834 193.731 518.343 213.688C502.851 233.645 481.159 247.879 456.684 254.146" stroke="white" stroke-width="60" stroke-linecap="round" stroke-linejoin="round"/>
</svg>
