<svg width="28" height="28" viewBox="0 0 28 28" fill="none" xmlns="http://www.w3.org/2000/svg">
<circle cx="14" cy="14" r="14" fill="white" fill-opacity="0.4"/>
<path d="M8.48737 22H19.1472C19.8079 21.9981 20.4409 21.7342 20.9072 21.2662C21.3735 20.7981 21.6351 20.1642 21.6346 19.5035V14.1472C21.6346 13.9588 21.5597 13.778 21.4264 13.6447C21.2931 13.5114 21.1124 13.4366 20.9239 13.4366C20.7354 13.4366 20.5547 13.5114 20.4214 13.6447C20.2881 13.778 20.2132 13.9588 20.2132 14.1472V19.5035C20.2142 19.7873 20.1025 20.06 19.9026 20.2615C19.7028 20.4631 19.4311 20.5772 19.1472 20.5787H8.48737C8.20352 20.5772 7.93185 20.4631 7.732 20.2615C7.53215 20.06 7.42044 19.7873 7.42138 19.5035V8.86207C7.42044 8.57821 7.53215 8.30557 7.732 8.10399C7.93185 7.90241 8.20352 7.78835 8.48737 7.78684H13.8173C14.0058 7.78684 14.1865 7.71197 14.3198 7.57869C14.4531 7.44542 14.528 7.26466 14.528 7.07618C14.528 6.8877 14.4531 6.70695 14.3198 6.57367C14.1865 6.4404 14.0058 6.36552 13.8173 6.36552H8.48737C7.82668 6.36741 7.19371 6.63133 6.7274 7.09938C6.26108 7.56743 5.9995 8.20137 6.00007 8.86207V19.5035C5.9995 20.1642 6.26108 20.7981 6.7274 21.2662C7.19371 21.7342 7.82668 21.9981 8.48737 22Z" fill="black" fill-opacity="0.7"/>
<path d="M12.719 12.4374L12.1583 15.0057C12.1329 15.1222 12.1373 15.2432 12.1709 15.3576C12.2046 15.472 12.2665 15.576 12.3509 15.6602C12.4365 15.7423 12.5406 15.8025 12.6544 15.8358C12.7682 15.8691 12.8884 15.8744 13.0047 15.8514L15.5674 15.2893C15.7004 15.26 15.8223 15.1932 15.9184 15.0967L22.3954 8.61973C22.5934 8.42175 22.7504 8.18671 22.8576 7.92802C22.9648 7.66933 23.0199 7.39207 23.0199 7.11207C23.0199 6.83206 22.9648 6.5548 22.8576 6.29611C22.7504 6.03742 22.5934 5.80238 22.3954 5.6044C21.9894 5.21648 21.4495 5 20.8881 5C20.3266 5 19.7867 5.21648 19.3807 5.6044L12.9138 12.0877C12.8167 12.1832 12.7491 12.3046 12.719 12.4374ZM20.3856 6.60999C20.5208 6.48046 20.7008 6.40815 20.8881 6.40815C21.0753 6.40815 21.2553 6.48046 21.3905 6.60999C21.522 6.74404 21.5956 6.92431 21.5956 7.11207C21.5956 7.29983 21.522 7.4801 21.3905 7.61415L20.8881 8.11658L19.8832 7.11171L20.3856 6.60999ZM14.0608 12.9448L18.8748 8.11871L19.8697 9.11861L15.0536 13.9461L13.7779 14.2261L14.0608 12.9448Z" fill="black" fill-opacity="0.7"/>
</svg>
