<svg width="16" height="16" viewBox="0 0 16 16" fill="none" xmlns="http://www.w3.org/2000/svg">
<path d="M15.5 2.93478C15.5 4.27948 14.4099 5.36957 13.0652 5.36957C11.7205 5.36957 10.6304 4.27948 10.6304 2.93478C10.6304 1.59009 11.7205 0.5 13.0652 0.5C14.4099 0.5 15.5 1.59009 15.5 2.93478Z" fill="#636363" stroke="#636363"/>
<path d="M8.82609 2.6087H2.30435C1.95841 2.6087 1.62665 2.74613 1.38203 2.99074C1.13742 3.23535 1 3.56712 1 3.91305V13.6957C1 14.0416 1.13742 14.3734 1.38203 14.618C1.62665 14.8626 1.95841 15 2.30435 15H12.087C12.4329 15 12.7647 14.8626 13.0093 14.618C13.2539 14.3734 13.3913 14.0416 13.3913 13.6957V7.17392" stroke="#636363" stroke-width="2" stroke-miterlimit="10"/>
</svg>
