<svg width="13" height="15" viewBox="0 0 13 15" fill="none" xmlns="http://www.w3.org/2000/svg">
<path d="M11.505 0H0.885C0.650283 0 0.42518 0.0790165 0.259211 0.219667C0.093241 0.360317 1.9163e-09 0.55108 1.9163e-09 0.74999V14.2498C-1.11292e-05 14.3932 0.0484703 14.5335 0.139701 14.6543C0.230931 14.775 0.361088 14.8711 0.514752 14.9311C0.668415 14.991 0.839146 15.0124 1.00672 14.9927C1.17429 14.973 1.33168 14.913 1.46025 14.8198L6.195 11.4523L10.8767 14.7823C10.9593 14.8518 11.0574 14.9068 11.1652 14.9441C11.2731 14.9814 11.3885 15.0004 11.505 14.9998C11.6211 15.0023 11.7363 14.9818 11.8413 14.9398C12.0029 14.8835 12.1413 14.788 12.2389 14.6652C12.3366 14.5424 12.3891 14.3979 12.39 14.2498V0.74999C12.39 0.55108 12.2968 0.360317 12.1308 0.219667C11.9648 0.0790165 11.7397 0 11.505 0ZM10.62 12.6448L6.7614 9.89986C6.60238 9.78761 6.40196 9.72615 6.195 9.72615C5.98804 9.72615 5.78762 9.78761 5.6286 9.89986L1.77 12.6448V1.49998H10.62V12.6448Z" fill="#636363"/>
</svg>
