<svg width="12" height="12" viewBox="0 0 12 12" fill="none" xmlns="http://www.w3.org/2000/svg">
<path d="M1.41376 8.23746C2.24439 9.06901 3.35051 9.56821 4.52376 9.641C5.69701 9.71378 6.85639 9.35515 7.78348 8.63264L10.9734 11.8217C11.0866 11.9309 11.2381 11.9913 11.3954 11.99C11.5526 11.9886 11.7031 11.9255 11.8143 11.8144C11.9255 11.7032 11.9886 11.5528 11.99 11.3955C11.9913 11.2383 11.9309 11.0868 11.8216 10.9737L8.63166 7.78472C9.38644 6.81635 9.74329 5.59662 9.62942 4.37428C9.51556 3.15193 8.93957 2.01904 8.01891 1.20666C7.09825 0.39427 5.90228 -0.0364221 4.6749 0.00241564C3.44752 0.0412534 2.28119 0.546696 1.41376 1.41566C0.965561 1.86351 0.610013 2.39524 0.367435 2.9805C0.124856 3.56575 0 4.19305 0 4.82656C0 5.46007 0.124856 6.08737 0.367435 6.67263C0.610013 7.25788 0.965561 7.78962 1.41376 8.23746ZM2.26194 2.26479C2.85493 1.67199 3.63517 1.30307 4.46973 1.22089C5.3043 1.13871 6.14154 1.34835 6.83883 1.81409C7.53612 2.27984 8.0503 2.97287 8.29377 3.77512C8.53724 4.57736 8.49494 5.43918 8.17408 6.21375C7.85321 6.98831 7.27363 7.62769 6.53409 8.02295C5.79454 8.41822 4.94079 8.54491 4.11828 8.38145C3.29578 8.21798 2.55541 7.77447 2.02332 7.12649C1.49123 6.4785 1.20035 5.66612 1.20022 4.82776C1.19857 4.35137 1.29158 3.8794 1.47384 3.43922C1.65609 2.99905 1.92398 2.59944 2.26194 2.26359V2.26479Z" fill="#B9B9B9"/>
</svg>
