<svg width="512" height="341" viewBox="0 0 512 341" fill="none" xmlns="http://www.w3.org/2000/svg">
<mask id="path-1-inside-1_562_37" fill="white">
<rect width="512" height="341" rx="2"/>
</mask>
<rect width="512" height="341" rx="2" stroke="#626262" stroke-width="20" mask="url(#path-1-inside-1_562_37)"/>
<mask id="path-2-inside-2_562_37" fill="white">
<rect x="20" y="20" width="472" height="301" rx="2"/>
</mask>
<rect x="20" y="20" width="472" height="301" rx="2" stroke="#626262" stroke-width="20" mask="url(#path-2-inside-2_562_37)"/>
<path d="M82.6484 232.243H173.591C178.311 232.243 182.299 230.616 185.554 227.36C188.89 224.024 190.559 220.077 190.559 215.52V199.162C190.559 193.872 188.321 189.356 183.845 185.612C179.369 181.869 173.998 179.997 167.731 179.997H128.181V154.362H167.731C173.103 154.362 177.66 152.491 181.403 148.747C185.228 145.004 187.141 140.528 187.141 135.319V127.141C187.141 122.421 185.472 118.392 182.136 115.056C178.881 111.719 174.893 110.051 170.173 110.051H82.6484V84.416H170.173C178.067 84.416 185.228 86.3285 191.657 90.1533C198.168 93.9782 203.335 99.1458 207.16 105.656C210.985 112.085 212.897 119.247 212.897 127.141V135.808C212.897 148.666 208.015 158.675 198.249 165.837C204.515 169.58 209.073 174.138 211.921 179.509C214.769 184.799 216.193 191.431 216.193 199.406V215.764C216.193 223.576 214.281 230.697 210.456 237.126C206.631 243.474 201.464 248.56 194.953 252.385C188.524 256.128 181.403 258 173.591 258H82.6484V232.243Z" fill="#626262"/>
<path d="M294.648 199.406C294.648 189.966 296.846 183.008 301.24 178.532C305.635 174.056 313.488 170.76 324.8 168.645L389.497 156.193C393.485 155.461 396.781 153.426 399.385 150.09C401.989 146.672 403.291 142.766 403.291 138.371V127.141C403.291 122.421 401.623 118.392 398.286 115.056C395.031 111.719 391.043 110.051 386.323 110.051H303.315V84.416H386.323C394.217 84.416 401.379 86.3285 407.808 90.1533C414.237 93.8968 419.364 98.9424 423.188 105.29C427.095 111.638 429.048 118.677 429.048 126.408V138.859C429.048 145.695 427.746 152.043 425.142 157.902C422.537 163.762 418.957 168.685 414.399 172.673C409.924 176.579 404.797 179.102 399.019 180.241L326.387 194.035C324.027 194.523 322.399 195.134 321.504 195.866C320.69 196.517 320.283 197.657 320.283 199.284V232.365H428.926V258H294.648V199.406Z" fill="#626262"/>
<path d="M260.048 218.476H269.571V228H260.048V218.476ZM260.048 208.952H269.571V218.476H260.048V208.952ZM250.524 208.952H260.048V218.476H250.524V208.952ZM260.048 151.81H269.571V161.333H260.048V151.81ZM250.524 151.81H260.048V161.333H250.524V151.81ZM250.524 218.476H260.048V228H250.524V218.476ZM260.048 142.286H269.571V151.81H260.048V142.286ZM250.524 142.286H260.048V151.81H250.524V142.286Z" fill="#626262"/>
</svg>
