<svg width="512" height="384" viewBox="0 0 512 384" fill="none" xmlns="http://www.w3.org/2000/svg">
<mask id="path-1-inside-1_562_51" fill="white">
<rect width="512" height="384" rx="2"/>
</mask>
<rect width="512" height="384" rx="2" stroke="#626262" stroke-width="20" mask="url(#path-1-inside-1_562_51)"/>
<mask id="path-2-inside-2_562_51" fill="white">
<rect x="20" y="20" width="472" height="344" rx="2"/>
</mask>
<rect x="20" y="20" width="472" height="344" rx="2" stroke="#626262" stroke-width="20" mask="url(#path-2-inside-2_562_51)"/>
<path d="M124.648 105.416H150.405V164.986C150.405 169.706 152.033 173.735 155.288 177.071C158.625 180.326 162.653 181.954 167.373 181.954H227.188V105.416H252.822V279H227.188V207.589H167.373C159.561 207.589 152.399 205.676 145.889 201.852C139.46 198.027 134.292 192.94 130.386 186.593C126.561 180.164 124.648 173.043 124.648 165.23V105.416Z" fill="#626262"/>
<path d="M327.545 105.416H383.331V279H357.696V131.051H327.545V105.416Z" fill="#626262"/>
<path d="M299.048 234.476H308.571V244H299.048V234.476ZM299.048 224.952H308.571V234.476H299.048V224.952ZM289.524 224.952H299.048V234.476H289.524V224.952ZM299.048 167.81H308.571V177.333H299.048V167.81ZM289.524 167.81H299.048V177.333H289.524V167.81ZM289.524 234.476H299.048V244H289.524V234.476ZM299.048 158.286H308.571V167.81H299.048V158.286ZM289.524 158.286H299.048V167.81H289.524V158.286Z" fill="#626262"/>
</svg>
