<svg width="512" height="305" viewBox="0 0 512 305" fill="none" xmlns="http://www.w3.org/2000/svg">
<mask id="path-1-inside-1_562_58" fill="white">
<rect y="9" width="512" height="288" rx="2"/>
</mask>
<rect y="9" width="512" height="288" rx="2" stroke="#626262" stroke-width="20" mask="url(#path-1-inside-1_562_58)"/>
<mask id="path-2-inside-2_562_58" fill="white">
<rect x="20" y="29" width="472" height="248" rx="2"/>
</mask>
<rect x="20" y="29" width="472" height="248" rx="2" stroke="#626262" stroke-width="20" mask="url(#path-2-inside-2_562_58)"/>
<path d="M77.5449 66.416H133.331V240H107.696V92.0508H77.5449V66.416ZM165.191 109.141C165.191 101.247 167.104 94.0853 170.929 87.6562C174.754 81.1458 179.881 75.9782 186.31 72.1533C192.82 68.3285 200.022 66.416 207.916 66.416H288.849V92.0508H207.916C203.196 92.0508 199.168 93.7191 195.831 97.0557C192.576 100.392 190.948 104.421 190.948 109.141V130.381H254.669C262.481 130.381 269.602 132.131 276.031 135.63C282.46 139.129 287.547 143.849 291.29 149.79C295.115 155.649 297.027 162.16 297.027 169.321V197.642C297.027 205.454 295.115 212.575 291.29 219.004C287.547 225.352 282.46 230.438 276.031 234.263C269.602 238.088 262.481 240 254.669 240H207.916C200.104 240 192.942 238.088 186.432 234.263C180.003 230.438 174.835 225.352 170.929 219.004C167.104 212.575 165.191 205.454 165.191 197.642V109.141ZM190.948 197.642C190.948 202.199 192.576 206.105 195.831 209.36C199.168 212.616 203.196 214.243 207.916 214.243H254.669C259.308 214.243 263.255 212.616 266.51 209.36C269.765 206.105 271.393 202.199 271.393 197.642V169.321C271.393 165.008 269.765 161.387 266.51 158.457C263.255 155.446 259.308 153.94 254.669 153.94H190.948V197.642Z" fill="#626262"/>
<path d="M369.545 66.416H425.331V240H399.696V92.0508H369.545V66.416Z" fill="#626262"/>
<path d="M341.048 200.476H350.571V210H341.048V200.476ZM341.048 190.952H350.571V200.476H341.048V190.952ZM331.524 190.952H341.048V200.476H331.524V190.952ZM341.048 133.81H350.571V143.333H341.048V133.81ZM331.524 133.81H341.048V143.333H331.524V133.81ZM331.524 200.476H341.048V210H331.524V200.476ZM341.048 124.286H350.571V133.81H341.048V124.286ZM331.524 124.286H341.048V133.81H331.524V124.286Z" fill="#626262"/>
</svg>
